<svg fill="white" xmlns="http://www.w3.org/2000/svg" viewBox="0 0 135 52" width="135" height="52" data-darkreader-inline-fill="" style="--darkreader-inline-fill: var(--darkreader-bg--gold);">
    <path d="M82.637 29.99v5.626c0 2.404 1.064 3.721 3.462 4.273.523.124.703.303.667.801-.036.499-.324.605-.739.605H76.85c-.541 0-.83-.16-.884-.765-.108-1.015-.162-1.015-1.136-.517-2.434 1.247-4.995 1.834-7.753 1.78-6.42-.124-12.154-4.54-13.867-10.753-.397-1.46-.631-2.937-.631-4.468.018-3.383 0-6.784 0-10.166 0-2.653-.92-3.793-3.57-4.38-.614-.125-.56-.48-.56-.908 0-.499.271-.623.704-.623h9.322c.776 0 .758.445.776.979.036.854.126.89.865.463 2.128-1.246 4.472-1.834 6.888-1.887 5.933-.125 11.45 2.545 14.21 8.492a15.468 15.468 0 0 1 1.442 6.783c-.018 1.55 0 3.116 0 4.665h-.018Zm-7.159-4.237v-6.73c0-.641-.036-1.282-.198-1.905-1.01-3.775-4.472-6.018-8.583-5.573-3.607.374-6.816 3.685-6.888 7.335-.09 4.718-.127 9.436 0 14.137.126 3.88 3.39 7.388 7.88 7.335 5.085-.071 7.862-4.398 7.79-7.727-.055-2.279 0-4.576 0-6.872ZM101.822 30.827V50.34c.018.516-.18.748-.721.748h-5.716c-.523 0-.776-.178-.758-.713V20.002c0-3.774-2.308-6.819-5.86-7.762-.577-.16-1.19-.125-1.785-.25-.199-.035-.523-.303-.505-.463.018-.356-.126-.89.469-.997.27-.053.559-.035.83-.035h12.802c1.208 0 1.226 0 1.226 1.21V30.81l.018.018ZM33.373 20.928V2.376c0-.32.018-.64 0-.961-.036-.606.27-.784.83-.784 1.857.018 3.714.018 5.572 0 .613 0 .83.267.793.82-.018.373 0 .73 0 1.103v29.27c0 3.543 1.93 6.373 5.157 7.566a8.352 8.352 0 0 0 2.29.499c.631.035.703.285.721.819.037.712-.432.587-.811.587H34.419c-1.01 0-1.028-.035-1.046-.997-.018-1.14 0-2.296 0-3.436V20.928ZM124.759 25.841v-5.5c.018-5.485-6.293-10.31-12.46-7.033-1.154.623-2.128 1.602-3.102 2.492-.414.392-.613.232-.901-.036-.289-.284-.722-.498-.253-.996 1.461-1.567 3.192-2.831 5.212-3.58 5.301-1.993 10.404-1.584 15.038 1.781 3.589 2.617 5.5 6.267 5.843 10.647.198 2.6.27 5.217-.577 7.762-1.695 5.057-4.977 8.564-10.279 9.864-5.662 1.406-10.747.231-14.948-3.97-.649-.66-.613-.748.072-1.247.325-.231.559-.249.847.036.451.463.902.926 1.389 1.353 4.959 4.309 12.514 1.905 13.993-4.45.126-.535.144-1.087.162-1.639.018-1.834 0-3.668 0-5.501l-.036.017ZM10.455 25.948v5.217c.036 3.614 1.749 6.231 5.049 7.71 3.336 1.512 6.42.765 9.178-1.514.433-.356.793-.766 1.19-1.14.469-.427 1.172-.32 1.425.267.054.143-.054.445-.18.57-.974.855-1.876 1.798-2.958 2.475-5.752 3.65-13.758 2.884-18.645-1.816-2.687-2.6-4.183-5.822-4.436-9.525-.162-2.51-.18-5.021.523-7.496 1.587-5.537 6.456-9.934 12.568-10.522 4.382-.427 8.259.623 11.667 3.365.36.285.703.606 1.028.926.685.712.65.926-.108 1.478-.307.231-.451.089-.686-.107-.739-.694-1.442-1.442-2.271-2.012-5.013-3.454-11.884-.926-13.236 5.252-.09.445-.09.908-.09 1.371v5.501h-.018Z"></path>
</svg>